<svg width="19" height="19" viewBox="0 0 19 19" fill="none" xmlns="http://www.w3.org/2000/svg">
<path d="M16.5917 5.68219C16.6109 5.66078 16.629 5.63799 16.6449 5.6141C16.7538 5.45078 16.7679 5.24102 16.6746 5.06833C16.278 4.33416 15.8176 3.71076 15.2492 3.15375C15.056 2.96444 14.7629 2.92903 14.521 3.04999C13.021 3.94999 11.121 3.04999 10.821 1.24999C10.7599 1.00573 10.5639 0.816682 10.3162 0.771372C9.94523 0.703499 9.55986 0.649994 9.12097 0.649994C8.66888 0.649994 8.33034 0.706768 7.977 0.777538C7.76986 0.819027 7.62097 1.00206 7.62097 1.21332C7.62097 1.23773 7.61898 1.26241 7.61466 1.28643C7.29526 3.0621 5.41082 3.9439 3.92097 3.04999C3.67904 2.92903 3.38574 2.96428 3.1953 3.15637C2.63106 3.72552 2.17327 4.39307 1.7786 5.07239C1.68011 5.24192 1.68931 5.45251 1.79806 5.61563C1.81331 5.6385 1.83062 5.66029 1.84894 5.68078C3.01305 6.9829 2.5084 9.05471 0.920972 9.64999C0.745198 9.70858 0.632285 9.88047 0.65241 10.0647C0.748897 10.9477 0.916212 11.8184 1.20635 12.5728C1.27184 12.7431 1.43854 12.85 1.62097 12.85C3.31435 12.7504 4.71006 14.3376 4.22673 16.0301C4.22299 16.0432 4.21791 16.0561 4.21181 16.0683C4.15992 16.1721 4.19329 16.2985 4.2909 16.3613C5.11309 16.8899 6.01646 17.3272 7.00102 17.5269C7.07599 17.5421 7.15325 17.5177 7.20733 17.4636C7.21641 17.4546 7.22479 17.4446 7.23233 17.4342C8.23332 16.0548 10.3103 16.0553 11.3106 17.4356C11.3175 17.4451 11.3251 17.4542 11.3335 17.4625C11.3876 17.5166 11.4666 17.5377 11.5403 17.5169C12.5541 17.2316 13.4787 16.8539 14.2341 16.2242C14.2816 16.1846 14.2839 16.1129 14.2402 16.0693C14.2276 16.0566 14.2182 16.0408 14.2133 16.0236C13.7344 14.3335 15.0303 12.7505 16.821 12.85C17.0022 12.85 17.1657 12.7399 17.23 12.5705C17.5376 11.7595 17.7673 10.9425 17.8128 10.0661C17.8225 9.87751 17.7001 9.70971 17.521 9.64999C15.9341 8.95575 15.4293 6.98278 16.5917 5.68219Z" stroke="#AAAAAA" stroke-width="1.3" stroke-miterlimit="10" stroke-linecap="round" stroke-linejoin="round"/>
<path d="M9.43961 12.4419C11.1474 12.3213 12.4341 10.839 12.3134 9.13122C12.1928 7.42341 10.7106 6.13676 9.00277 6.25738C7.29497 6.37801 6.00831 7.86025 6.12894 9.56805C6.24957 11.2759 7.7318 12.5625 9.43961 12.4419Z" stroke="#AAAAAA" stroke-width="1.3" stroke-miterlimit="10" stroke-linecap="round" stroke-linejoin="round"/>
</svg>
