<svg width="129" height="32" viewBox="0 0 129 32" fill="none" xmlns="http://www.w3.org/2000/svg">
<path d="M54.88 9.04V11.3H51.16V23H48.36V11.3H44.64V9.04H54.88ZM59.723 11.3V14.8H64.423V17.02H59.723V20.72H65.023V23H56.923V9.02H65.023V11.3H59.723ZM72.3875 23.14C71.4142 23.14 70.5342 22.9733 69.7475 22.64C68.9742 22.3067 68.3608 21.8267 67.9075 21.2C67.4542 20.5733 67.2208 19.8333 67.2075 18.98H70.2075C70.2475 19.5533 70.4475 20.0067 70.8075 20.34C71.1808 20.6733 71.6875 20.84 72.3275 20.84C72.9808 20.84 73.4942 20.6867 73.8675 20.38C74.2408 20.06 74.4275 19.6467 74.4275 19.14C74.4275 18.7267 74.3008 18.3867 74.0475 18.12C73.7942 17.8533 73.4742 17.6467 73.0875 17.5C72.7142 17.34 72.1942 17.1667 71.5275 16.98C70.6208 16.7133 69.8808 16.4533 69.3075 16.2C68.7475 15.9333 68.2608 15.54 67.8475 15.02C67.4475 14.4867 67.2475 13.78 67.2475 12.9C67.2475 12.0733 67.4542 11.3533 67.8675 10.74C68.2808 10.1267 68.8608 9.66 69.6075 9.34C70.3542 9.00667 71.2075 8.84 72.1675 8.84C73.6075 8.84 74.7742 9.19333 75.6675 9.9C76.5742 10.5933 77.0742 11.5667 77.1675 12.82H74.0875C74.0608 12.34 73.8542 11.9467 73.4675 11.64C73.0942 11.32 72.5942 11.16 71.9675 11.16C71.4208 11.16 70.9808 11.3 70.6475 11.58C70.3275 11.86 70.1675 12.2667 70.1675 12.8C70.1675 13.1733 70.2875 13.4867 70.5275 13.74C70.7808 13.98 71.0875 14.18 71.4475 14.34C71.8208 14.4867 72.3408 14.66 73.0075 14.86C73.9142 15.1267 74.6542 15.3933 75.2275 15.66C75.8008 15.9267 76.2942 16.3267 76.7075 16.86C77.1208 17.3933 77.3275 18.0933 77.3275 18.96C77.3275 19.7067 77.1342 20.4 76.7475 21.04C76.3608 21.68 75.7942 22.1933 75.0475 22.58C74.3008 22.9533 73.4142 23.14 72.3875 23.14ZM89.255 9.04V11.3H85.535V23H82.735V11.3H79.015V9.04H89.255ZM99.858 20.34H94.298L93.378 23H90.438L95.458 9.02H98.718L103.738 23H100.778L99.858 20.34ZM99.098 18.1L97.078 12.26L95.058 18.1H99.098ZM115.794 13.36C115.794 14.1067 115.614 14.8067 115.254 15.46C114.908 16.1133 114.354 16.64 113.594 17.04C112.848 17.44 111.901 17.64 110.754 17.64H108.414V23H105.614V9.04H110.754C111.834 9.04 112.754 9.22667 113.514 9.6C114.274 9.97333 114.841 10.4867 115.214 11.14C115.601 11.7933 115.794 12.5333 115.794 13.36ZM110.634 15.38C111.408 15.38 111.981 15.2067 112.354 14.86C112.728 14.5 112.914 14 112.914 13.36C112.914 12 112.154 11.32 110.634 11.32H108.414V15.38H110.634ZM127.962 13.36C127.962 14.1067 127.782 14.8067 127.422 15.46C127.076 16.1133 126.522 16.64 125.762 17.04C125.016 17.44 124.069 17.64 122.922 17.64H120.582V23H117.782V9.04H122.922C124.002 9.04 124.922 9.22667 125.682 9.6C126.442 9.97333 127.009 10.4867 127.382 11.14C127.769 11.7933 127.962 12.5333 127.962 13.36ZM122.802 15.38C123.576 15.38 124.149 15.2067 124.522 14.86C124.896 14.5 125.082 14 125.082 13.36C125.082 12 124.322 11.32 122.802 11.32H120.582V15.38H122.802Z" fill="#121212"/>
<circle cx="16" cy="16" r="16" fill="#FF9F24"/>
<path d="M9.666 15.718C9.666 14.494 9.948 13.396 10.512 12.424C11.088 11.452 11.862 10.696 12.834 10.156C13.818 9.604 14.892 9.328 16.056 9.328C17.388 9.328 18.57 9.658 19.602 10.318C20.646 10.966 21.402 11.89 21.87 13.09H19.404C19.08 12.43 18.63 11.938 18.054 11.614C17.478 11.29 16.812 11.128 16.056 11.128C15.228 11.128 14.49 11.314 13.842 11.686C13.194 12.058 12.684 12.592 12.312 13.288C11.952 13.984 11.772 14.794 11.772 15.718C11.772 16.642 11.952 17.452 12.312 18.148C12.684 18.844 13.194 19.384 13.842 19.768C14.49 20.14 15.228 20.326 16.056 20.326C16.812 20.326 17.478 20.164 18.054 19.84C18.63 19.516 19.08 19.024 19.404 18.364H21.87C21.402 19.564 20.646 20.488 19.602 21.136C18.57 21.784 17.388 22.108 16.056 22.108C14.88 22.108 13.806 21.838 12.834 21.298C11.862 20.746 11.088 19.984 10.512 19.012C9.948 18.04 9.666 16.942 9.666 15.718Z" fill="white"/>
</svg>
